<svg id="Capa_1" data-name="Capa 1" xmlns="http://www.w3.org/2000/svg" viewBox="0 0 763.9 608.92"><title>Alecar-+Logo</title><path fill="#fff" d="M709,526.47c.26-1.54.89-3.13.72-4.62-1.33-11.31-2-22.77-4.41-33.86-7.78-35.69-7.11-71.36-.67-107a87,87,0,0,1,7.52-23c14.17-28.52,28.86-56.78,43.57-85a43.7,43.7,0,0,1,15.92-17.58c6-3.67,12.48-5.46,19.56-4.1,10.15,1.94,16.68,9.42,15.13,19.58-2.4,15.69,2.13,29.52,9.13,43,12.57,24.17,22,49.44,26.92,76.28,1.2,6.49,2.09,13,3.23,20.22a76.57,76.57,0,0,1,15.53-31.94c1.74-2.16,3.33-4.43,5.14-6.53a56.07,56.07,0,0,0,13.57-33.11c.68-8.79,2.84-17.27,8.37-24.47,4.74-6.17,10.75-10.34,18.69-11.08,9.47-.9,15.33,4.44,15.38,14,0,3-.25,5.9-.39,8.85l.84.56c1.31-1.37,3-2.53,3.83-4.15,1.66-3.32,2.85-6.88,4.21-10.35,4-10.12,11.51-15.77,22.14-16.87,10.34-1.08,18.5,3.18,24.32,11.72,2.22,3.25,3.81,6.94,6.17,10.07,1.52,2,3.67,4.26,6,4.91,17,4.87,22.55,16.85,23.32,33.73.23,5-.58,10-.69,15-.09,4.36-.42,8.82.39,13a20.05,20.05,0,0,0,4.51,9.61,68.84,68.84,0,0,1,16.63,30.88c1.19,4.64,2.66,9.22,4.28,13.73,2.08,5.76,5.49,10.62,10.92,13.74,11.23,6.45,15.88,16.62,16,29,.11,9.68-1.21,19.44-.48,29.06.89,11.85,3.24,23.6,4.94,35.39,1.84,12.73,3.65,25.46,5.51,38.44,14.07,2.26,19,5.88,29.69,22.33,3.89-3.71,7.68-7.52,11.67-11.09,10.35-9.25,22.3-15,36.36-15,8,0,15.36,2.59,19,10.5,2.7,5.79,3.1,12.1,2,18.47-3.27,18.57-9.34,36-20.68,51.32-5.11,6.92-12.22,9.47-20.11,11.13s-15.17-.63-22.84-3c-1.35,2.78-2.83,5.57-4.09,8.46-2.42,5.56-4.44,11.29-7.1,16.73-6.28,12.89-5.41,26.41-4.33,40.08.51,6.53-1.4,12.58-7.5,16.19-3.69,2.19-7.81,3.36-12.2,2.31-18.28-4.36-29.77-15.58-34.22-33.91-.22-.9-.54-1.79-.81-2.69h-1c-.48,6.22-1.62,12.49-1.29,18.67.72,13.54-8.22,19.7-19.64,18.82a39.65,39.65,0,0,1-31.16-18.21c-2.59-3.92-4.05-8.58-6-12.8-17.56,21.27-37.17,17-53.75,2.15a77.15,77.15,0,0,1-22.53,18c-15.71,8-32.08,11.41-49.35,5.43-10.33-3.58-17.76-10.67-23.17-20-.22-.37-.45-.73-.64-1-5.36,3.8-10.46,8-16.06,11.28-18.4,10.93-37.93,14-58.62,7.44-8.59-2.71-15.3-7.55-22.3-16.07-7.36,5.46-14.33,11.52-22.13,16.17-8,4.77-16.9,7.47-26.56,4.7-6.73-1.94-11.38-6.45-15.46-11.76-11.69-15.25-16-32.69-15.06-51.59,1.62-33.12,10.4-64.63,21.7-95.55,2-5.39,4.39-10.61,6.37-16a8.19,8.19,0,0,0,0-4.39c-.47-2.06-1.72-4-1.93-6-.43-4.26,3.4-7.54,8-7.51,1.14,0,2.29-.69,3.44-1.07,0-.57,0-1.14,0-1.71-5.2,2.9-8.15-.69-11.67-3-9.74-6.3-19.51-12.57-29.42-18.61-6.67-4.06-13.32-8.06-18.4-14.15a26,26,0,0,1-6.17-13.8c-.5-4.31,2.06-7.76,6.07-8.38a7.06,7.06,0,0,1,8.36,5.95c.95,5,4,8.44,7.9,11.22,3.7,2.68,7.75,4.87,11.6,7.34,9.86,6.31,19.78,12.55,29.5,19.08,2.53,1.69,4.42,4.32,6.74,6.66-.48.31-.3.24-.19.11,3-3.38,2.56-6.43,0-10.1-3.1-4.42-5.37-9.42-8-14.15C686.1,518,682.37,515.9,677,517c-10.05,2.1-17.53-1.76-22.68-10.36a42,42,0,0,0-11.21-12c-9.46-7.13-11.59-14.15-8.41-25.52.81-2.87,1.68-5.73,2.63-8.56a11.4,11.4,0,0,0-2.73-12.1c-1.6-1.73-3.05-3.6-4.77-5.17-7.87-7.2-12.28-16.22-14.3-26.55a22.79,22.79,0,0,0-1.5-4.8,25.73,25.73,0,0,0,.91,21.27,13.4,13.4,0,0,1,1.67,6c-.12,3.45-2.7,5.82-6.08,6.48a7.48,7.48,0,0,1-7.75-3.89c-6.13-10.94-7-22.39-3.11-34.25,2-6,3-6.81,10.13-8-2.88-1.62-4.92-3.08-7.19-4a3.34,3.34,0,0,0-4.67,2.13c-2.55,7.12-5,14.27-7.51,21.41a1.84,1.84,0,0,0-.1,1.19c2.77,6.53,5.33,13.15,8.41,19.53,7.76,16.06,10.52,32.76,7.24,50.37-1,5.31-4.32,7.94-9.06,7.09-4.33-.77-6.42-4.64-5.47-9.89a63.87,63.87,0,0,0-7.31-43.54c-.15-.27-.32-.52-.93-1.52-2.36,9.31-4.51,17.81-6.65,26.31a29.87,29.87,0,0,1-.73,3.11c-3.86,10.58-.65,20.35,3.69,29.85,3.46,7.55,7.55,14.83,8.86,23.19A27.93,27.93,0,0,1,586,541.9a7.35,7.35,0,0,1-10,3.62c-3.5-1.51-5-5.48-3.62-9.45,2.58-7.33.95-16.23-4.85-23.51-2.21,19.19-4.33,37.63-6.45,56.06l.72.49a40.92,40.92,0,0,0,3.33-4.48c.89-1.56,1.33-3.36,2.07-5,2.88-6.43,6.9-7.67,13.25-3.94,4.3-2.89,8.71-5.78,13-8.82a4.45,4.45,0,0,0,1.57-2.49,38.66,38.66,0,0,0-3-26.15c-1.56-3.16-1.41-6.26,1-8.91,2.26-2.44,5.27-3.15,8.15-1.64a10.59,10.59,0,0,1,4.24,4.45A53.08,53.08,0,0,1,611,536.73c4.26,1.9,8.51,3.11,11.9,5.52a15.31,15.31,0,0,1,6.23,10.28c2,12,4.42,24,6.5,36,1.55,9,2.81,18,4.26,26.92,1.38,8.58,2.82,17.15,4.25,25.72.91,5.44,1.8,10.89,2.77,16.32,1.32,7.48,2.79,14.94,4.05,22.43,1.54,9.18,2.87,18.39,4.38,27.57,1.68,10.17,3.45,20.32,5.19,30.47,2.07,12.16,4.33,24.29,6.17,36.48,1.14,7.56-1.32,14.06-8.19,17.91a18.06,18.06,0,0,1-19.69-.82c-10-6.75-19.67-14.07-29.54-21-9.62-6.8-19.39-13.41-29-20.25-8.47-6.05-16.77-12.34-25.2-18.45-3.87-2.81-7.64-5.9-11.89-8-3.5-1.74-7.59-2.45-11.51-3.19q-17.07-3.21-34.21-6.07c-9.28-1.55-18.62-2.72-27.89-4.32-7.3-1.26-14.51-3-21.79-4.39-8.12-1.57-16.31-2.86-24.41-4.54-10.65-2.2-15-13-12.63-22.11,1.2-4.55,4.09-7.34,7.49-9.82,7.29-5.31,14.76-10.39,22.14-15.58,9.45-6.65,18.84-13.37,28.33-20,10.54-7.31,21.17-14.49,31.73-21.77,4.71-3.25,9.4-6.54,14-10a11.16,11.16,0,0,0,3-3.55c5.14-9.51,11.59-18,20.45-24.23,6.62-4.64,9.32-10.45,10-18.45a621.64,621.64,0,0,1,31.39-150.39c1.48-4.34,2.82-8.74,4.63-12.94,4.58-10.66,14.11-14.61,25-10.5a28.28,28.28,0,0,1,17.32,18.09c1.86,5.42,3.17,11.05,4.51,16.63A32,32,0,0,0,639.5,432a95.16,95.16,0,0,1,7.91,8.77,24.7,24.7,0,0,1,4.26,23.25c-1,3.37-2,6.74-3.07,10.09s-.5,6,2.38,7.9a52.61,52.61,0,0,1,16.63,17.81c1.42,2.44,3.57,3.35,6.52,2.71,12.42-2.65,21.35,2.44,27.67,12.9,2.19,3.61,4.17,7.34,6.25,11Zm340.34-33.21c.22-4.12.58-8.24.66-12.36.14-7.42-2.84-13.1-9.4-16.94-7.86-4.61-13.06-11.56-16.18-20-2.18-5.89-4-11.92-5.73-18-2.25-7.78-5.47-14.91-11.27-20.83A35.48,35.48,0,0,1,997.05,382c-.19-3,0-6,0-9.36-6.07,3.73-9.44,3.08-13.32-2.26-2.19-3-4.35-6.06-6.31-9.23-6-9.67-8.33-20-5.1-31.19a4,4,0,0,0,0-2.72,148,148,0,0,0-8.09-13A11.12,11.12,0,0,0,945.29,316c-1.5,2.92-2.44,6.13-3.68,9.19-2,4.9-4.29,9.74-9.08,12.39-3.15,1.75-4.41,4-4.21,7.36a17.53,17.53,0,0,1-.28,2.86c-1,10.7,0,21,5,30.79a93,93,0,0,1,5.16,12.72c2.1,6.21,2.52,12.54-.14,18.74a7.24,7.24,0,0,1-9.51,4.11c-3.67-1.41-5.19-5.18-4.5-9.15a24.7,24.7,0,0,0,0-9.31c-.74-3.38-2.59-6.51-3.82-9.8-2-5.47-4.38-10.89-5.86-16.52-2.4-9.21-1.46-18.62-.62-28a3.46,3.46,0,0,0-.8-2.7c-5.06-3.88-6-9.29-5.91-15.13,0-1.75.21-3.5.36-5.83-11.71,5.59-11.88,16.17-13.54,26.61,3.37-2.53,6.57-3.86,10.11-1.71s4,5.93,3.6,9.6a176.59,176.59,0,0,1-2.94,17.58,7.33,7.33,0,0,1-9.55,5.58c-4-1.31-5.78-5.24-4.56-9.83.93-3.52,1.6-7.12,2.38-10.68l-.78-.23c-2.68,11.35-9.1,20.63-16.54,29.17-13,14.9-18.52,32.19-17,51.67.95,11.77,2.41,23.53,4.32,35.18,3.11,19,5.14,38,2.25,57.23-2.08,13.85-2.85,27.79-.73,41.74.73,4.8,1.49,9.6,2.3,14.78,1.63-1.1,2.67-2.19,3.92-2.57,4.23-1.26,8.49-2.76,12.83-3.17,2.2-.21,4-.33,5.7-1.75,7.44-6.15,15.87-9.39,25.66-8.83a12,12,0,0,0,4.92-1c2.75-1.1,4.22-.62,4.74,2.4s.49,5.9.72,8.85a3,3,0,0,1-2.85,3.54c-3.57.45-7.16.94-10.75,1.08a16.1,16.1,0,0,0-9.75,3.27c5.16,7.11,11,13.65,15,21.11s6.5,16,9.65,24.09c-.5.16-.37.16-.33.1a14.29,14.29,0,0,0,.77-1.38,116.26,116.26,0,0,1,30.51-40.52c8.89-7.5,18-14.81,30.11-16.47,7.68-1.05,14.25,1.09,19.28,7.31,4.1,5.08,4.61,11.29,5.77,17.33a7,7,0,0,0,2.11,3.44c3.6,3.43,7.89,6.28,10.92,10.14,9,11.4,13,24,7.71,38.46-1.24,3.44-1.55,7.21-2.35,11.11,2.45-.74,4.33-1.46,6.28-1.84,1.75-.35,2.32-1.16,2.56-2.95.83-6.11,1.7-12.25,3-18.28,3.27-15.3,6.72-30.56,14.81-44.27a7.71,7.71,0,0,0,.68-3.07c1.24-12-.28-23.81-2.34-35.6-2.2-12.59-4.69-25.14-6.22-37.81-1-7.88-.35-15.94-.44-23.93ZM692.77,726.92c0-1.55-.09-2.71,0-3.85,1.07-11.77,1.56-23.63,3.36-35.29,7.46-48.06,24.94-92.3,51.72-132.9,3.4-5.15,6.62-10.44,9.51-15.89,5.23-9.85,8.42-20.31,7.15-31.62a31.38,31.38,0,0,0-2.67-9.76c-2.12-4.5-6.05-5.47-10.45-3.12a14.77,14.77,0,0,0-3.88,2.76c-4.41,4.76-9.16,9.31-12.93,14.55-33.38,46.51-55.57,97.77-64.45,154.5-2,12.85-3.2,25.87-.84,38.84a58.25,58.25,0,0,0,13,27.07c4.34,5.23,9.64,6.86,16,4.52a54.34,54.34,0,0,0,9.8-4.58c11.36-7,20-16.8,27.14-28l2.21-3.41c.22,1.51.3,2.11.4,2.71,2.47,14.5,9.82,25.09,24.35,29.57A49.5,49.5,0,0,0,788,734.16c21.24-4.91,37-17.2,47.37-36.36.53-1,1-1.95,1.67-3.16.63,4.81.91,9.27,1.83,13.6,2.87,13.64,9.73,24,24,27.81a39.88,39.88,0,0,0,19.33,0c20.35-4.73,34.46-17.35,44.18-35.39.56-1,1.08-2.08,2-3.82.35,1.6.52,2.3.65,3a28.32,28.32,0,0,0,13.62,19.59c9.39,5.78,15.94,5.07,23.78-2.65,8.3-8.19,14.15-18.09,19.52-28.3.47-.9,1-1.78,1.12-2.06,2.36,11,4.59,22.33,7.26,33.57,2.15,9,8.46,14.66,16.81,17.91,3,1.16,6.41,1.38,9.66,1.63,2,.15,3.35-1,3.12-3.42-1-10.61,1-20.81,4.71-30.69,4.45-12,11.14-22.48,22.07-29.82a6.56,6.56,0,0,0-6.23-4.4,11.3,11.3,0,0,0-9.44,3.94,113.64,113.64,0,0,0-11.14,14.68c-2.72,4.47-4.33,9.61-6.45,14.5-.06-.35-.17-.72-.2-1.1-1.85-20.21-1.36-40.26,4.23-59.92,1.41-5,1.49-9.76-.85-14.28a66.72,66.72,0,0,0-7.48-11.78c-1.94-2.35-4.9-4-7.69-5.45-3.24-1.64-5.92.44-8.87,3.26.45-1.48.63-2,.76-2.48,1.56-6.46,2.73-13,1-19.58-1.58-6-5.09-8.23-11-6.3a46.26,46.26,0,0,0-11.13,5.42c-21.72,14.5-35.64,34.81-43.28,59.54-3.13,10.14-5,20.71-8.54,30.69-6.92,19.42-20.05,33.16-39.86,39.9a49,49,0,0,1-17.94,2.58c-2.77-34.4,3.36-66,24.94-94.57,7.47,5.77,14.32,11,21.35,16.49a34.36,34.36,0,0,0,.41-4.49c-.8-19.33-9-35-23.63-47.44-5.47-4.65-10.59-4-15.46,1.28-15.73,16.94-25.67,37-31.54,59.16-2.44,9.22-4.24,18.54-9,27-5.35,9.67-11.33,18.82-19.73,26.12-13,11.3-27.93,16.46-45.2,13.91-1.75-.26-3.73-.21-3.58-3,.51-10,1-20,1.41-30,.09-2,1.3-2.75,3.12-3.35a141.32,141.32,0,0,0,14.68-5.37c20.07-9.2,34.5-23.51,40.5-45.36a19,19,0,0,0-.31-12.52c-6-15-16-26.19-31.15-32.54-6.29-2.65-11.43-1.93-16.38,3.33-17.6,18.66-29.1,40.56-35.52,65.23-1.6,6.17-1.89,12.79-4.23,18.63-8.27,20.66-22.31,36.58-41.53,47.87C695,725.87,694,726.29,692.77,726.92Zm-40.55,49.64c-2-12-3.79-23.42-5.77-34.82-1.66-9.56-3.65-19.07-5.28-28.64-2-12-3.77-24.06-5.81-36.07-1.78-10.55-3.92-21-5.68-31.59-2.32-13.88-4.33-27.81-6.66-41.68-2.6-15.47-5.43-30.9-8.14-46.36-.85-4.83-2.63-5.7-6.55-3q-11,7.64-21.91,15.36c-8.64,6.14-17.17,12.45-25.87,18.52-8.16,5.7-16.55,11.09-24.72,16.78-11,7.64-21.78,15.48-32.7,23.18q-19.8,13.93-39.67,27.77c-9.25,6.41-18.65,12.61-27.92,19-3.24,2.22-6.39,4.58-9.42,7.08a3.34,3.34,0,0,0-1,3,4.34,4.34,0,0,0,2.81,2q11.6,2.38,23.24,4.47c11,2,22,3.84,32.95,5.72,10,1.71,20,3.32,30,5.06,7.39,1.28,14.79,2.52,22.12,4.1,5.53,1.19,11.2,1.54,16.17,5.2,17.19,12.64,34.64,24.93,52,37.32,4.5,3.21,9.14,6.21,13.64,9.42,9.59,6.86,19.09,13.84,28.74,20.61a5,5,0,0,0,4.08.27C651.69,779,651.91,777.25,652.22,776.56ZM793.3,386.19l-1.06.29c0,1,.08,2,.15,3a280.42,280.42,0,0,0,7.58,47c1.12,4.56-1,8.39-5.21,9.47s-7.94-1.4-9.07-5.88a296.06,296.06,0,0,1-8.93-76c.1-8,.22-16.07-1.07-23.88-1.23-7.39-4.24-14.49-6.59-21.68-3.12-9.58-5.62-19.24-4.44-29.47,0-.2-.27-.43-.57-.88L728,358.43c4.36-1.85,7.9-1.92,10.61,1.33,2.86,3.42,1.48,6.9-.17,10.44a24.12,24.12,0,0,0-2.55,7.87c-.7,8.68-1.08,17.4-1.37,26.11-.33,10.22-.28,20.45-.7,30.66-.19,4.39-3.85,7.06-8.17,6.68-3.9-.35-6.72-3.81-6.47-8.07.16-2.76.62-5.52.63-8.28.05-12.79,0-25.58,0-38.37,0-2.39.4-4.78.61-7.17-9.24,41.64-7.2,83,3.35,124.13a37.05,37.05,0,0,1,3.39-4.27,5.71,5.71,0,0,0,1.51-6.37c-1.54-5.09-3.11-10.18-4.52-15.31-1.66-6-3.43-12.07-4.66-18.21-.83-4.18,2.18-7.64,6.48-8.41,3.62-.65,7,2.05,8.09,6.1,2.37,9,4.86,18,7.39,27.32l5.12-2.77c0-5.3-.24-10.19.07-15a7.25,7.25,0,0,1,7.86-7.11c4.22.36,6.87,3.81,6.88,8.47a70.65,70.65,0,0,0,.74,10.48,5.41,5.41,0,0,0,2.43,3.24,25.69,25.69,0,0,1,11.58,15.39c4.09,13.93,1.58,27.23-3.39,40.31-4.16,10.94-10.89,20.44-17.32,30.1-2.37,3.56-4.47,7.31-6.3,10.31,5.92,1.35,11.61,2.51,17.22,4,2,.52,3.29.41,4.85-1a21.27,21.27,0,0,1,17.09-5.59,45.48,45.48,0,0,1,21.24,8.21c3.76,2.72,7.45,5.54,11.64,8.67a30.86,30.86,0,0,0-1.21-3.72c-3.35-6.88-6.83-13.71-10.09-20.64a11.47,11.47,0,0,1-1.26-5.68,6.84,6.84,0,0,1,6.11-6.09c3.59-.46,6.14,1.36,7.94,4.29a126.08,126.08,0,0,1,14,31.45c1.93,6.78.19,10-6,11.71,3,7,6,14.09,8.58,20.3,4.26-7.06,9-15,13.79-22.9a3.7,3.7,0,0,0,.59-2.08c-.48-4.51-1-9-1.64-13.51-.43-3-1.07-5.89-1.65-9C845,580.47,840,579.9,837.57,575a52,52,0,0,1-4.92-32.63,7.3,7.3,0,0,1,9.76-5.54c3.47,1.17,5.22,4.26,4.7,8.77-.61,5.18-.61,10.27,1.11,15.25a2.63,2.63,0,0,0,.32-1.24c.56-10.31.81-20.65,1.75-30.92,1-11.49,2.36-23,.85-34.45-2.18-16.58-4.66-33.12-7.07-49.67a3.87,3.87,0,0,0-1.2-2.38c-6-4.46-8.94-10.76-10.37-17.82-1-5-1.58-10-2.34-15-2.4,9.71-.57,19.18,2.05,28.6,2.79,10.06,5.21,20.17,5.93,30.68.51,7.4,2,14.72,2.92,22.09a149.27,149.27,0,0,1,1.49,17.74,22,22,0,0,1-5.23,13.82,7.41,7.41,0,0,1-10,1.72c-3.13-2.06-4.55-6.58-2.39-9.56,3.81-5.29,3.59-11,2.5-16.85-1-5.44-3-10.81-3.24-16.26-.69-16.51-4-32.48-8.23-48.37a51.9,51.9,0,0,1-.78-23.78c1.1-5.44,6.12-8.26,10.75-5.83,1.49.78,2.61,2.25,4,3.53-.08-1.05-.1-2-.23-2.94-2.51-17.57-6.55-34.8-13.25-51.24-5.42-13.31-11.7-26.27-17.63-39.36s-9.9-26.8-7.28-41.53c.13-.73.07-1.49.13-2.23.17-2.41-1.17-3.76-3.34-3.8a15.63,15.63,0,0,0-6.53.89c-6,2.66-9.64,7.71-13.08,13.37a9.34,9.34,0,0,0,1.38,0c6.66-1.46,10.92,2.65,9.66,9.27a34.58,34.58,0,0,0-.52,5.07c-.31,8,2.45,15.29,5,22.65,3.35,9.9,6.88,19.73,7.53,30.3.44,7,2.15,13.61,6.8,19.15a21.54,21.54,0,0,1,1.62,2.37,91.57,91.57,0,0,1,13.31,35,7.23,7.23,0,0,1-4.71,8.15,7.15,7.15,0,0,1-8.66-2.89c-.88-1.49-1.06-3.4-1.56-5.12Zm292.54,273.68-.37.11c2.5-8.33,4.64-16.79,7.58-25,4.6-12.8.8-26.54-10.19-34.68-7-5.2-11.82-4.26-15.62,3.58a114.68,114.68,0,0,0-6.17,15.72c-9.07,29-11,58.71-9,88.81.82,12.74,7.08,22.09,18.13,28.26a20.21,20.21,0,0,0,6.28,2.18c3.36.59,4.78-.85,4.61-4.28-.14-3-.4-6-.65-8.93-.9-10.38-.22-20.44,3.4-30.48,9.83-27.3,22.8-52.73,41.93-74.77.71-.82,1.48-1.58,2.86-3.06-.45,2.26-.67,3.5-.95,4.72a101.19,101.19,0,0,1-12,29.79c-1,1.63-1.62,3.08.54,4.25,6.91,3.74,21.27,3,26.34-4.53,5.85-8.75,10.84-17.91,13.65-28a141.48,141.48,0,0,0,4.26-22.48c.62-5.66-2.15-7.9-7.85-8a35.61,35.61,0,0,0-20.72,6.41c-12.19,8.17-21.36,19.26-29.2,31.39C1096.61,640.29,1091.42,650.2,1085.84,659.87Zm-191-10.49c-9.12,12.43-17.1,43.86-15.34,60.19,17.57-2.88,37.59-29.71,37.08-50C906.28,662.8,901.42,654.27,894.85,649.38ZM758,595.05c-6-2.54-8.65-1.7-13.2,3.44-2.93,3.32-6.17,6.37-9.26,9.55-1.13,1.17-2.65,2.2-3.27,3.61C722.94,633,715.4,655,711.12,678c-1.22,6.53-2.13,13.12-3.2,19.85.72-.12,1-.07,1.09-.18,1.08-1.18,2.19-2.33,3.18-3.58,7-8.84,12.63-18.21,14.73-29.62a153.87,153.87,0,0,1,22.24-56.6C752,603.54,755,599.35,758,595.05Zm20.34,114.54c13.3-.58,23.1-6.74,31.48-15.79,8.17-8.84,13.29-19.39,17.36-30.52-2.37,2.5-4.37,5.26-6.65,7.76a94.29,94.29,0,0,1-38.64,25.24c-1.17.42-2.74,1.61-2.9,2.63C778.45,702.25,778.5,705.67,778.31,709.59ZM986.21,337c-1.8,7,4.53,21.7,11.23,26.1C999.34,348.15,995.29,338.72,986.21,337Z" transform="translate(-410.12 -250.82)"/><path fill="#fff" d="M738.48,816.92c-3-.29-6.71-.44-10.33-1-12.82-2.13-18.79-15.06-17.67-26.51,1.48-15,13.94-24.44,25-26.93,10.42-2.36,20.75-1.78,31.15-1.16,2.85.16,4.69-.33,6.26-2.93a19,19,0,0,1,14.79-9.48,13.07,13.07,0,0,1,13.06,6.84,4.59,4.59,0,0,0,2.3,2.1c7.8,2.39,10.78,7.23,9.31,15.42a3.57,3.57,0,0,0,0,.71,19.57,19.57,0,0,1,13.74,3.6c.62.46,2.11.17,3-.23,3-1.4,5.69-3.28,8.72-4.46,5.85-2.29,11.28-1.18,16.05,3,5.84-2.88,11.62-3.09,17.39.24,1.81-1.65,3.49-3.44,5.43-4.9,5.56-4.17,11.51-5,17.87-1.73a4.61,4.61,0,0,0,2.38.26c.94-.08,1.9-.68,2.8-.57,9.23,1.15,17.14-3.89,25.77-5.48,7.26-1.33,14-.19,19.83,4.58,4.49,3.65,5.89,10,3.7,16.32a3.83,3.83,0,0,0,0,2.77c3.43,6.35,3.44,13-1.11,18.23-5.24,6.06-11.58,11.2-17.69,16.47-4.26,3.68-9,6.83-13.39,10.34-5.85,4.66-13.29,5.33-18.13,2.4-7-4.26-7.84-12.67-3.91-20.36,1.48-2.91,3.66-5.46,5.63-8.32l-3.64-4.23c-1.92,2.37-4.06,4.43-5.51,6.91a76.7,76.7,0,0,0-5.78,11.71c-2.55,6.73-9.65,12.31-18,9.42-1.66-.57-2.68-.15-4,1.26-4.4,4.62-12.8,5.62-18.44,1.59-.87-.61-1.72-1.24-2.62-1.89-8.46,5.37-16.59,5.09-24.23-1.55-12.24,12.43-25.25,15.47-38.33,5.6-2.81,4.45-5.38,9.09-8.49,13.32a28.07,28.07,0,0,1-16,10.94c-8.63,2.26-18.81-2.66-22-10.14-4.11-9.53-3-19.15,1.85-28.25A21.21,21.21,0,0,1,738.48,816.92ZM785,772.84,790.49,761c-2.35-1.61-4.18-.35-5.35.9a51.19,51.19,0,0,0-6.31,8.34c-1.28,2.12-2.67,3-5.12,2.83-7-.39-14.07-.95-21.09-.77-5.69.15-11.57.55-17,2.13-10.13,2.93-15.45,12.23-13.38,21.7,1.13,5.18,4.58,8.3,9.77,9.21,5.94,1,14.57-3.5,15.87-9-1.19.56-2.1,1-3,1.41a68.61,68.61,0,0,1-7.16,3.5c-4.46,1.6-9,.18-11.13-3.14-2.32-3.61-1.65-8.54,1.66-12,2.87-3,6.3-5.34,10.54-5.42,7.11-.13,14.24,0,21.35.31,4.21.16,8.4.74,12.57,1.12a6.38,6.38,0,0,1,0,1.29c-4,13.8-7.75,27.69-12.25,41.32-1.8,5.45-5.11,10.45-8.14,15.41a5.86,5.86,0,0,1-4.74,2.32c-1.07-.16-1.87-2.72-2.59-4.31a5.88,5.88,0,0,1-.19-2.53c.11-2.75.27-5.5.43-8.66-.58.63-1.16,1-1.19,1.34-.42,4.83-1.37,9.71-.93,14.47.38,4.05,6.1,6.53,10.13,5.31A17.64,17.64,0,0,0,764,838.89c3.78-7.35,7.6-14.82,10.07-22.66,3.11-9.82,4.9-20.05,7.19-30.12.54-2.35,1.36-4.46,4-4.67,6.51-.52,11-4.29,14.81-9.05a10.61,10.61,0,0,0,1.17-3c-1,.19-2.28.09-3.1.63C794.25,772.53,789.92,772.5,785,772.84Zm145.44,21.62.34.78c-1.71,1.37-3.46,2.7-5.13,4.12-5,4.19-10.08,8.21-14.74,12.72a45.35,45.35,0,0,0-6.56,9c-.56.9.07,2.54.16,3.84,1.2-.14,2.42-.21,3.6-.45a4,4,0,0,0,1.32-.88c4.41-3.35,8.89-6.61,13.2-10.07,4.64-3.74,9.25-7.53,13.63-11.56,2.21-2,4.88-4.54,3.16-8s-5.24-3.08-8.48-2.78l-15.2,1.41c5.86-6.06,11.44-10.92,19.53-11.8,1.17-.13,2.25-1.08,3.37-1.65-.84-1.12-1.54-3-2.53-3.21-3.49-.57-7.33-1.45-10.55-.52-5.49,1.58-10.61,4.44-15.76,6.71a8.65,8.65,0,0,0-2.7-1.57,14.42,14.42,0,0,0-10.79,1.63c-2.27,1.35-4.48,2.77-7.21,4.47.22-1.73.42-2.95.53-4.17.27-3.06-1.6-4.53-4.35-3.18a12.94,12.94,0,0,0-4.2,3.33c-7.85,9.68-12.09,20.7-11.75,33.27,0,1.13,1.13,2.22,1.74,3.33,1.12-.75,2.69-1.25,3.27-2.3,1.58-2.88,2.56-6.08,4.09-9,4-7.64,8.84-14.76,17-18.43,3.52-1.59,7.6-2,11.77-2.94-.31.84-.44,1.22-.58,1.6-2.63,7.07,1.18,11.72,8.64,10.35,2.7-.49,5.29-1.6,8-2.32C925.65,795.54,928.07,795,930.48,794.46Zm-97.16,21.7c-.41-.73-.6-.91-.59-1.08a14.19,14.19,0,0,1,.24-1.57c1.64-9.2,5.75-17.31,11.06-24.88,1-1.41,3.12-3,1.19-4.57-1.1-.87-3.48-.18-5.28-.07-.47,0-.92.5-1.37.78-8.89,5.57-13.25,13.94-14.39,24a24.48,24.48,0,0,0,.77,9.72c1.52,4.89,6.51,6.22,10.49,3a52.15,52.15,0,0,0,6.76-7.16c1.81-2.16,3.34-4.55,5.52-7.58a15.73,15.73,0,0,0-.24,3.42c.9,4,1.73,8,3,11.9.28.86,2.32,1.8,3.32,1.59s1.74-1.78,2.21-2.91c.55-1.36.59-2.91,1-4.34,2.58-8.88,5.27-17.73,7.75-26.64.36-1.32-.21-2.9-.35-4.36-1.61.16-3.52-.16-4.77.6a20.28,20.28,0,0,0-5.09,4.7c-4.61,5.72-9,11.64-13.6,17.33C838.65,810.89,836,813.39,833.32,816.16Zm-11.62-21c-.27-1.82-.38-2.88-.59-3.91-1.13-5.36-3.77-6.91-9-5.32l-4,1.2c-12,3.7-23,17.72-23.65,30.27-.23,4.25,1.05,7.83,4.76,10.13,3.9,2.41,8.16,2.76,12.13.4C814.11,820.39,819,808.07,821.7,795.14Zm-78.06,20.25,7.59,1.24c.65-2.27,1.28-4.53,2-7.12Z" transform="translate(-410.12 -250.82)"/><path fill="#fff" d="M627.45,465.21c1.16,4.13,2,8.37,3.56,12.36,1.82,4.68.8,9.05-3.17,10.91s-8.16,0-10.37-4.58a37.86,37.86,0,0,1-3.65-22.32,11.88,11.88,0,0,1,3.3-6.47c2.2-2.05,5.3-2,8.06-.4,2.58,1.5,3.37,4,3.42,6.78a27.37,27.37,0,0,1-.36,3.48Z" transform="translate(-410.12 -250.82)"/><path fill="#fff" d="M864.29,432.43c0-16.34,4.18-29.2,14.12-39.9a28.61,28.61,0,0,1,4.75-4.26,7.34,7.34,0,0,1,9.78,1.59c2.18,2.68,2.35,7.05-.28,9.38-14.52,12.86-15.38,29.17-11.7,46.44,1.34,6.31,3.78,12.4,6,18.5,1.58,4.43.34,8.68-3.45,10.38-4,1.78-8.16,0-10.16-4.44A98.33,98.33,0,0,1,864.29,432.43Z" transform="translate(-410.12 -250.82)"/><path fill="#fff" d="M971.31,358.64c-.5,2.81-1.25,6.15-1.59,9.52a6.67,6.67,0,0,0,1,4.3c11.37,15.38,16.33,32.53,14.61,51.6-.34,3.77-1,7.21-5.36,8.48-5.43,1.59-10.18-2.29-9.57-8,1.35-12.62-.43-24.64-6.79-35.76a62.09,62.09,0,0,0-5.5-8.2,15.52,15.52,0,0,1-3.42-13.12c.66-3.67,1.26-7.34,1.95-11a7.41,7.41,0,0,1,8-6.29C968.71,350.55,971.42,353.75,971.31,358.64Z" transform="translate(-410.12 -250.82)"/><path fill="#fff" d="M1049.37,493.15c-.37.64-.72,1.29-1.1,1.92-3.14,5.24-10.41,5.41-12.9-.1-4.11-9.05-10.79-16-17.31-23.17-5.69-6.23-11.11-12.65-14.58-20.45-2.55-5.72-4.12-11.66-3.64-18,.38-4.94,3.6-8.12,7.84-7.92s7.18,3.61,7,8.61c-.38,9.52,4.88,16.5,10.44,23.31,6.51,8,13.45,15.67,19.56,24,2.44,3.32,3.13,7.92,4.63,11.93Z" transform="translate(-410.12 -250.82)"/><path fill="#fff" d="M1048.53,551.1q-2.28,14.49-4.57,29c-.43,2.73-.82,5.48-1.34,8.19-.9,4.69-4.3,7.31-8.51,6.67s-6.75-4.17-6-9c1.35-8.94,2.67-17.9,4.33-26.79,1.31-7,1-13.63-2.27-20.19a44.87,44.87,0,0,1-3.56-11.53c-.71-3.68,0-7.34,3.61-9.51,4.76-2.84,10.41.26,11.24,5.75a52.29,52.29,0,0,0,2.79,10.66C1046.27,539.79,1048.35,545.12,1048.53,551.1Z" transform="translate(-410.12 -250.82)"/><path fill="#fff" d="M902.58,432.75c.29-4.85,1.83-9.46,6.4-12.54a7.63,7.63,0,0,1,10.13,1,7.23,7.23,0,0,1-.42,10.09c-1.49,1.51-1.4,2.74-.38,4.17,2,2.77,4,5.47,6,8.22a61.07,61.07,0,0,1,11.12,29.51c.52,4.55-2,7.9-6.15,8.58A7,7,0,0,1,921,475.4c-1.22-11.24-6.13-20.63-13.29-29.12A21,21,0,0,1,902.58,432.75Z" transform="translate(-410.12 -250.82)"/><path fill="#fff" d="M866.05,544.66c1.18-6.79,2.17-13.62,3.57-20.36a7.35,7.35,0,0,1,9.38-5.84c4.07,1.19,6.08,5.14,4.84,9.69a63.34,63.34,0,0,0-.26,32.8c1.19,4.69-1,8.61-5.28,9.69-4,1-8-1.4-8.95-6C868,558.09,867.16,551.46,866.05,544.66Z" transform="translate(-410.12 -250.82)"/><path fill="#fff" d="M978.87,451.15c0-4.71,2.7-8,6.46-8.42a7.29,7.29,0,0,1,8.17,6.34,43.62,43.62,0,0,0,9.46,21.28c3.06,3.85,2.66,8.42-.77,11s-7.72,1.93-10.72-1.71A55.67,55.67,0,0,1,978.87,451.15Z" transform="translate(-410.12 -250.82)"/><path fill="#fff" d="M993.4,524.63c1.54-2,2.75-4.44,4.7-5.85,2.53-1.83,5.64-1.33,8,.69a28.62,28.62,0,0,1,9.81,17.78c.58,3.61-2.4,7.1-6.11,7.83-3.39.67-6.87-1.7-8.37-5s-3.65-6.58-5.44-9.89C995.17,528.64,994.5,527,993.4,524.63Z" transform="translate(-410.12 -250.82)"/><path fill="#fff" d="M957,710.13c-4-29.85,8.42-65.18,34.24-85.39C994.13,643.67,972.63,697.29,957,710.13Z" transform="translate(-410.12 -250.82)"/><path fill="#fff" d="M802,621.5c1.3,14.26-10.4,34.27-28.88,43.13,1.14-3,2.05-5.71,3.16-8.32a146.55,146.55,0,0,1,18.25-31.39C796.51,622.35,798.66,621.07,802,621.5Z" transform="translate(-410.12 -250.82)"/><path fill="#fff" d="M596.57,684.72c-1.41-.74-4.26-2-6.85-3.62-4-2.57-7.93-5.38-11.83-8.16a94.35,94.35,0,0,1-8.41-6.29c-4.28-3.81-9.75-3.24-14.74-4.29-6.85-1.44-13.82-2.28-20.73-3.45-4.44-.76-7.16-3.33-8.06-7.11-1.2-5.07-.07-9.24,4.35-12.3,8.4-5.81,16.82-11.58,25.16-17.46,8.07-5.68,16-11.52,24.1-17.21a13.31,13.31,0,0,1,13.91-1.33c3.54,1.62,4.19,5.15,4.75,8.55,2.78,16.77,5.6,33.53,8.26,50.32a105.63,105.63,0,0,1,1.45,14.41C608,681.88,604.92,684.23,596.57,684.72ZM584.74,619.2l-38.49,27c5.14.94,9.58,1.86,14,2.54,6.43,1,12.7,2,18,6.5,4.34,3.67,9.19,6.71,14.09,10.23C589.82,650,587.33,634.91,584.74,619.2Z" transform="translate(-410.12 -250.82)"/><path fill="#fff" d="M739.83,386.53c.31-2.34.59-5.31,1.12-8.24a7.17,7.17,0,0,1,8.29-6.1,7,7,0,0,1,6.25,8.17,49.37,49.37,0,0,0,2.87,27.22,7,7,0,0,1-4.19,9.11,7.2,7.2,0,0,1-9.49-4A63.29,63.29,0,0,1,739.83,386.53Z" transform="translate(-410.12 -250.82)"/><path fill="#fff" d="M765.71,327.43c-.38,9.28-2.72,16.66-7.7,23.14-2.83,3.68-7.09,4.52-10.64,2.07S743.1,345.86,746,342c3.4-4.56,5.17-9.5,4.64-15.19-.12-1.26-.42-2.51-.66-3.76-.9-4.53,1.36-8.2,5.69-9.23,3.73-.9,7.57,1.5,8.64,5.7C765.06,322.46,765.39,325.54,765.71,327.43Z" transform="translate(-410.12 -250.82)"/><path fill="#fff" d="M821.13,523.3a39,39,0,0,1-8.68,22.05c-3.1,3.86-7.42,4.44-11,1.65-3.35-2.65-3.67-6.85-.68-10.78a25.48,25.48,0,0,0,5.53-14.35,7.53,7.53,0,0,1,8-7.35C818.44,514.88,821.31,518.39,821.13,523.3Z" transform="translate(-410.12 -250.82)"/><path fill="#fff" d="M796.48,465.49c0-2.66-.06-5.33,0-8a7.44,7.44,0,0,1,7.12-7.58,7.19,7.19,0,0,1,7.55,6.77,176.21,176.21,0,0,1,0,18.53,7.21,7.21,0,0,1-7.69,6.6,7.45,7.45,0,0,1-7-7.38c-.06-1.49,0-3,0-4.47S796.48,467,796.48,465.49Z" transform="translate(-410.12 -250.82)"/><path fill="#fff" d="M802.89,800.79a78.27,78.27,0,0,0,1.05,9c.28,1.23,1.67,2.2,2.56,3.28.52-1.14,1.45-2.27,1.48-3.42.21-6.43,3.31-11.83,5.9-17.41a2.72,2.72,0,0,1,2.19-1.35,2.66,2.66,0,0,1,1.42,2.13,35.9,35.9,0,0,1-.94,7.24,45.12,45.12,0,0,1-10.67,19.41c-2,2.13-5,3.37-7.78,4.69-1.78.86-3.23-.18-3.48-2.08a20.25,20.25,0,0,1,0-5.66C795.54,810.67,798.69,805.83,802.89,800.79Z" transform="translate(-410.12 -250.82)"/><path fill="#fff" d="M637.54,559.85c10.81,9.92,16.58,24.79,14.11,39.43-1.59,9.45,12.87,13.5,14.47,4,3.35-19.88-3-40.27-18-54-7.1-6.51-17.73,4.07-10.61,10.61Z" transform="translate(-410.12 -250.82)"/><path fill="#fff" d="M953.45,491.55c-1.83,23.32-1.18,51.68,22.16,64.52,8.46,4.66,16-8.29,7.57-13-18.11-10-16.1-34.08-14.73-51.57.75-9.63-14.25-9.58-15,0Z" transform="translate(-410.12 -250.82)"/><path fill="#fff" d="M897.37,505.61,894.82,536c-.8,9.62,14.2,9.57,15,0l2.55-30.34c.81-9.62-14.2-9.56-15,0Z" transform="translate(-410.12 -250.82)"/></svg>